<?xml version="1.0" standalone="no"?>
<!DOCTYPE svg PUBLIC "-//W3C//DTD SVG 20010904//EN"
 "http://www.w3.org/TR/2001/REC-SVG-20010904/DTD/svg10.dtd">
<svg version="1.0" xmlns="http://www.w3.org/2000/svg"
 width="700.000000pt" height="700.000000pt" viewBox="0 0 700.000000 700.000000"
 preserveAspectRatio="xMidYMid meet">
<metadata>
Created by potrace 1.11, written by Peter Selinger 2001-2013
</metadata>
<g transform="translate(0.000000,700.000000) scale(0.100000,-0.100000)"
fill="#000000" stroke="none">
<path d="M3505 6986 c-86 -38 -123 -143 -80 -225 7 -14 68 -81 136 -149 l122
-123 -333 -334 -333 -333 -38 24 c-137 86 -352 175 -544 223 -71 18 -109 25
-195 37 -149 22 -432 22 -545 0 -11 -2 -40 -7 -65 -11 -25 -3 -94 -19 -155
-35 -377 -99 -708 -301 -970 -590 -63 -70 -173 -215 -202 -268 -14 -26 -31
-54 -38 -62 -20 -25 -102 -199 -140 -299 -34 -89 -82 -262 -91 -326 -3 -16 -7
-41 -10 -54 -26 -119 -25 -490 1 -616 3 -11 6 -33 9 -50 20 -132 96 -357 175
-515 103 -205 201 -341 371 -511 308 -309 676 -494 1120 -563 95 -15 466 -16
535 -2 17 3 44 8 60 11 183 31 413 108 580 196 380 198 691 522 873 909 44 92
107 260 117 308 2 9 10 44 18 77 118 471 37 1018 -210 1435 -18 30 -33 58 -33
62 0 4 149 156 331 338 l332 330 126 -126 c124 -124 147 -141 205 -151 64 -11
150 47 171 116 4 13 7 279 7 591 0 631 1 614 -68 666 l-37 29 -586 2 c-471 2
-592 0 -616 -11z m-1355 -1750 c87 -15 204 -53 293 -97 259 -127 461 -351 552
-612 45 -128 57 -197 61 -342 6 -248 -51 -446 -188 -648 -56 -84 -197 -224
-282 -282 -260 -175 -582 -233 -881 -159 -533 133 -892 656 -819 1194 17 126
49 233 104 346 154 317 448 536 802 599 71 12 285 13 358 1z"/>
<path d="M5728 4808 c-74 -13 -123 -66 -133 -144 -8 -62 20 -105 153 -238
l123 -123 -333 -332 -332 -333 -35 21 c-135 76 -286 144 -405 183 -77 24 -204
57 -242 63 -62 8 -110 16 -131 20 -28 6 -30 2 -38 -70 -3 -33 -8 -67 -10 -75
-3 -8 -7 -33 -11 -55 -25 -164 -115 -446 -190 -597 -13 -26 -24 -51 -24 -56 0
-5 33 -9 73 -10 338 -7 682 -199 871 -487 89 -136 133 -243 166 -407 25 -123
21 -325 -9 -446 -207 -833 -1220 -1126 -1829 -529 -197 193 -312 447 -325 720
-3 48 -7 90 -9 93 -3 2 -33 -9 -67 -26 -165 -82 -446 -170 -621 -195 -19 -2
-60 -9 -90 -14 -30 -5 -58 -7 -62 -5 -38 23 15 -262 85 -456 99 -275 246 -509
451 -715 188 -190 341 -300 556 -402 276 -131 529 -187 845 -188 257 0 437 30
670 114 645 233 1123 788 1260 1465 94 463 10 979 -221 1361 l-43 70 334 334
333 334 133 -131 c106 -105 141 -133 169 -138 19 -4 43 -8 52 -10 9 -1 39 9
67 22 38 19 55 35 71 68 20 43 20 53 18 628 l-3 585 -28 36 c-56 73 -28 70
-644 71 -303 1 -571 -2 -595 -6z"/>
</g>
</svg>
